<svg width="46" height="46" viewBox="0 0 46 46" fill="none" xmlns="http://www.w3.org/2000/svg">
<mask id="path-1-inside-1_1_17" fill="white">
<path fill-rule="evenodd" clip-rule="evenodd" d="M22.9998 42.9999C34.0455 42.9999 42.9998 34.0456 42.9998 22.9999C42.9998 11.9542 34.0455 2.99988 22.9998 2.99988C11.9542 2.99988 2.99985 11.9542 2.99985 22.9999C2.99985 34.0456 11.9542 42.9999 22.9998 42.9999ZM22.9999 25.3781C24.3133 25.3781 25.3781 24.3133 25.3781 22.9999C25.3781 21.6864 24.3133 20.6216 22.9999 20.6216C21.6864 20.6216 20.6216 21.6864 20.6216 22.9999C20.6216 24.3133 21.6864 25.3781 22.9999 25.3781Z"/>
</mask>
<path fill-rule="evenodd" clip-rule="evenodd" d="M22.9998 42.9999C34.0455 42.9999 42.9998 34.0456 42.9998 22.9999C42.9998 11.9542 34.0455 2.99988 22.9998 2.99988C11.9542 2.99988 2.99985 11.9542 2.99985 22.9999C2.99985 34.0456 11.9542 42.9999 22.9998 42.9999ZM22.9999 25.3781C24.3133 25.3781 25.3781 24.3133 25.3781 22.9999C25.3781 21.6864 24.3133 20.6216 22.9999 20.6216C21.6864 20.6216 20.6216 21.6864 20.6216 22.9999C20.6216 24.3133 21.6864 25.3781 22.9999 25.3781Z" fill="#282828"/>
<path d="M41.9998 22.9999C41.9998 33.4933 33.4933 41.9999 22.9998 41.9999V43.9999C34.5978 43.9999 43.9998 34.5979 43.9998 22.9999H41.9998ZM22.9998 3.99988C33.4933 3.99988 41.9998 12.5065 41.9998 22.9999H43.9998C43.9998 11.4019 34.5978 1.99988 22.9998 1.99988V3.99988ZM3.99985 22.9999C3.99985 12.5065 12.5064 3.99988 22.9998 3.99988V1.99988C11.4019 1.99988 1.99985 11.4019 1.99985 22.9999H3.99985ZM22.9998 41.9999C12.5064 41.9999 3.99985 33.4933 3.99985 22.9999H1.99985C1.99985 34.5979 11.4019 43.9999 22.9998 43.9999V41.9999ZM24.3781 22.9999C24.3781 23.7611 23.761 24.3781 22.9999 24.3781V26.3781C24.8656 26.3781 26.3781 24.8656 26.3781 22.9999H24.3781ZM22.9999 21.6216C23.761 21.6216 24.3781 22.2387 24.3781 22.9999H26.3781C26.3781 21.1341 24.8656 19.6216 22.9999 19.6216V21.6216ZM21.6216 22.9999C21.6216 22.2387 22.2387 21.6216 22.9999 21.6216V19.6216C21.1341 19.6216 19.6216 21.1341 19.6216 22.9999H21.6216ZM22.9999 24.3781C22.2387 24.3781 21.6216 23.7611 21.6216 22.9999H19.6216C19.6216 24.8656 21.1341 26.3781 22.9999 26.3781V24.3781Z" fill="black" mask="url(#path-1-inside-1_1_17)"/>
<path fill-rule="evenodd" clip-rule="evenodd" d="M22.9998 29.9999C26.8658 29.9999 29.9998 26.8659 29.9998 22.9999C29.9998 19.1339 26.8658 15.9999 22.9998 15.9999C19.1339 15.9999 15.9998 19.1339 15.9998 22.9999C15.9998 26.8659 19.1339 29.9999 22.9998 29.9999ZM22.9998 25.7745C24.5322 25.7745 25.7745 24.5323 25.7745 22.9999C25.7745 21.4675 24.5322 20.2253 22.9998 20.2253C21.4675 20.2253 20.2252 21.4675 20.2252 22.9999C20.2252 24.5323 21.4675 25.7745 22.9998 25.7745Z" fill="#D9D9D9"/>
<mask id="path-4-inside-2_1_17" fill="white">
<path d="M35.9441 13.5953C34.4599 11.5525 32.5134 9.89004 30.2637 8.74373C28.0139 7.59742 25.5248 6.99984 22.9998 6.99984C20.4748 6.99984 17.9857 7.59742 15.736 8.74373C13.4862 9.89004 11.5397 11.5525 10.0555 13.5953L10.8645 14.1831C12.2559 12.268 14.0808 10.7094 16.1899 9.63474C18.2991 8.56007 20.6326 7.99984 22.9998 7.99984C25.367 7.99984 27.7005 8.56007 29.8097 9.63474C31.9188 10.7094 33.7437 12.268 35.1351 14.1831L35.9441 13.5953Z"/>
</mask>
<path d="M35.9441 13.5953C34.4599 11.5525 32.5134 9.89004 30.2637 8.74373C28.0139 7.59742 25.5248 6.99984 22.9998 6.99984C20.4748 6.99984 17.9857 7.59742 15.736 8.74373C13.4862 9.89004 11.5397 11.5525 10.0555 13.5953L10.8645 14.1831C12.2559 12.268 14.0808 10.7094 16.1899 9.63474C18.2991 8.56007 20.6326 7.99984 22.9998 7.99984C25.367 7.99984 27.7005 8.56007 29.8097 9.63474C31.9188 10.7094 33.7437 12.268 35.1351 14.1831L35.9441 13.5953Z" stroke="#343434" stroke-width="2" mask="url(#path-4-inside-2_1_17)"/>
<mask id="path-5-inside-3_1_17" fill="white">
<path d="M32.6824 15.965C31.5722 14.437 30.1162 13.1934 28.4333 12.336C26.7504 11.4785 24.8885 11.0315 22.9998 11.0315C21.111 11.0315 19.2491 11.4785 17.5663 12.336C15.8834 13.1934 14.4273 14.437 13.3172 15.965L14.1402 16.563C15.156 15.1649 16.4883 14.027 18.0281 13.2424C19.5679 12.4578 21.2716 12.0488 22.9998 12.0488C24.728 12.0488 26.4316 12.4578 27.9715 13.2424C29.5113 14.027 30.8436 15.1649 31.8594 16.563L32.6824 15.965Z"/>
</mask>
<path d="M32.6824 15.965C31.5722 14.437 30.1162 13.1934 28.4333 12.336C26.7504 11.4785 24.8885 11.0315 22.9998 11.0315C21.111 11.0315 19.2491 11.4785 17.5663 12.336C15.8834 13.1934 14.4273 14.437 13.3172 15.965L14.1402 16.563C15.156 15.1649 16.4883 14.027 18.0281 13.2424C19.5679 12.4578 21.2716 12.0488 22.9998 12.0488C24.728 12.0488 26.4316 12.4578 27.9715 13.2424C29.5113 14.027 30.8436 15.1649 31.8594 16.563L32.6824 15.965Z" stroke="#343434" stroke-width="1.83261" mask="url(#path-5-inside-3_1_17)"/>
<mask id="path-6-inside-4_1_17" fill="white">
<path d="M9.73518 31.9469C11.1471 34.0402 13.0344 35.7696 15.2428 36.9937C17.4512 38.2179 19.918 38.902 22.4414 38.9901C24.9648 39.0782 27.4733 38.5678 29.7617 37.5007C32.0501 36.4336 34.0534 34.8401 35.608 32.8504L34.8199 32.2347C33.3626 34.1001 31.4844 35.594 29.3391 36.5944C27.1937 37.5948 24.842 38.0733 22.4763 37.9907C20.1106 37.9081 17.798 37.2667 15.7276 36.1191C13.6573 34.9715 11.8879 33.3502 10.5642 31.3877L9.73518 31.9469Z"/>
</mask>
<path d="M9.73518 31.9469C11.1471 34.0402 13.0344 35.7696 15.2428 36.9937C17.4512 38.2179 19.918 38.902 22.4414 38.9901C24.9648 39.0782 27.4733 38.5678 29.7617 37.5007C32.0501 36.4336 34.0534 34.8401 35.608 32.8504L34.8199 32.2347C33.3626 34.1001 31.4844 35.594 29.3391 36.5944C27.1937 37.5948 24.842 38.0733 22.4763 37.9907C20.1106 37.9081 17.798 37.2667 15.7276 36.1191C13.6573 34.9715 11.8879 33.3502 10.5642 31.3877L9.73518 31.9469Z" stroke="#343434" stroke-width="2" mask="url(#path-6-inside-4_1_17)"/>
<mask id="path-7-inside-5_1_17" fill="white">
<path d="M13.0775 29.6925C14.1337 31.2583 15.5455 32.5519 17.1974 33.4676C18.8493 34.3833 20.6945 34.895 22.5821 34.9609C24.4697 35.0268 26.3461 34.6451 28.0578 33.8469C29.7696 33.0487 31.2682 31.8566 32.431 30.3683L31.6293 29.742C30.5654 31.1038 29.1942 32.1945 27.6279 32.9249C26.0616 33.6552 24.3447 34.0045 22.6176 33.9442C20.8904 33.8839 19.2021 33.4157 17.6906 32.5779C16.1791 31.74 14.8873 30.5563 13.9209 29.1236L13.0775 29.6925Z"/>
</mask>
<path d="M13.0775 29.6925C14.1337 31.2583 15.5455 32.5519 17.1974 33.4676C18.8493 34.3833 20.6945 34.895 22.5821 34.9609C24.4697 35.0268 26.3461 34.6451 28.0578 33.8469C29.7696 33.0487 31.2682 31.8566 32.431 30.3683L31.6293 29.742C30.5654 31.1038 29.1942 32.1945 27.6279 32.9249C26.0616 33.6552 24.3447 34.0045 22.6176 33.9442C20.8904 33.8839 19.2021 33.4157 17.6906 32.5779C16.1791 31.74 14.8873 30.5563 13.9209 29.1236L13.0775 29.6925Z" stroke="#343434" stroke-width="1.83261" mask="url(#path-7-inside-5_1_17)"/>
</svg>
